<?xml version="1.0" encoding="utf-8"?>
<!-- Generator: Adobe Illustrator 18.0.0, SVG Export Plug-In . SVG Version: 6.00 Build 0)  -->
<!DOCTYPE svg PUBLIC "-//W3C//DTD SVG 1.1//EN" "http://www.w3.org/Graphics/SVG/1.1/DTD/svg11.dtd">
<svg version="1.1" id="图层_1" xmlns="http://www.w3.org/2000/svg" xmlns:xlink="http://www.w3.org/1999/xlink" x="0px" y="0px"
	 viewBox="0 0 40 40" enable-background="new 0 0 40 40" xml:space="preserve">
<g id="XMLID_4_">
	<g>
		<path fill="#3190C1" d="M31.1,5c-5.4,0-9.8-1.8-10.8-4.2C19.4,3.2,14.9,5,9.6,5C6.7,5,4.2,4.5,2.2,3.6L5.8,27
			c0.1,0.5,0.5,0.9,0.8,1.3c0,0,9.2,11,13.6,11c4.4,0,13.8-11.1,13.8-11.1c0.3-0.4,0.6-0.8,0.8-1.3l3.7-23.3C36.5,4.5,33.9,5,31.1,5
			z M20.3,28.4c-5.3,0-9.5-4.3-9.5-9.5c0-2,0.6-3.8,1.6-5.4c0.5,0.5,1.1,0.9,1.8,1.3c1.3-2,3.6-3.3,6.1-3.3c2.6,0,4.8,1.3,6.1,3.3
			c0.7-0.4,1.3-0.8,1.8-1.3c1,1.5,1.6,3.4,1.6,5.4C29.8,24.1,25.6,28.4,20.3,28.4z"/>
		<path fill="#3190C1" d="M26.4,14.8c0.8,1.2,1.2,2.6,1.2,4.1c0,4.1-3.3,7.3-7.3,7.3S13,22.9,13,18.8c0-1.5,0.5-2.9,1.2-4.1
			c1.6,0.9,3.8,1.4,6.1,1.4S24.8,15.6,26.4,14.8z M23.2,20.3c0-1.6-1.3-2.9-2.9-2.9c-1.6,0-2.9,1.3-2.9,2.9c0,1.6,1.3,2.9,2.9,2.9
			C21.9,23.1,23.2,21.8,23.2,20.3z"/>
	</g>
</g>
</svg>
